<svg id="Layer_1" data-name="Layer 1" xmlns="http://www.w3.org/2000/svg" viewBox="0 0 40 40"><defs><style>.cls-1{fill:#aaa;}</style></defs><title>7Artboard 1 copy 6da</title><path class="cls-1" d="M10,15.49V29.42a.8.8,0,0,0,.8.8H29.2a.8.8,0,0,0,.8-.8V15.49Zm15,5L19.46,26a1.25,1.25,0,0,1-.89.37h0a1.25,1.25,0,0,1-.89-.37L15,23.37a1.25,1.25,0,0,1,1.77-1.77l1.79,1.79,4.63-4.64A1.25,1.25,0,1,1,25,20.51Z"/><path class="cls-1" d="M10.79,10.47h18.4a.8.8,0,0,1,.8.8v2.38a0,0,0,0,1,0,0H10a0,0,0,0,1,0,0V11.28A.8.8,0,0,1,10.79,10.47Z"/></svg>