<?xml version="1.0" encoding="utf-8"?>
<!-- Generator: Adobe Illustrator 21.1.0, SVG Export Plug-In . SVG Version: 6.00 Build 0)  -->
<svg version="1.1" id="Layer_1" xmlns="http://www.w3.org/2000/svg" xmlns:xlink="http://www.w3.org/1999/xlink" x="0px" y="0px"
	 viewBox="0 0 40 40" style="enable-background:new 0 0 40 40;" xml:space="preserve">
<style type="text/css">
	.st0{fill:#AAAAAA;}
</style>
<title>grey--dash-one</title>
<polygon class="st0" points="27.3,12.2 27.3,15.1 12.7,15.1 12.7,12.2 10,12.2 10,33.5 30,33.5 30,12.2 "/>
<path class="st0" d="M25,10.4c-0.3-0.3-0.7-0.4-1.1-0.4h-0.6c-1.2,0-2.3-1-2.3-2.2c0,0,0,0,0,0V7.6c0-0.1-0.1-0.3-0.3-0.2h-1.5
	c-0.1,0-0.3,0.1-0.3,0.2v0.2c0,1.2-1,2.3-2.2,2.3H16c-0.8,0-1.2,0.5-1.2,1.4v1.6h10.5v-1.6C25.3,11.1,25.2,10.7,25,10.4z"/>
</svg>
